HIERARCHY
ROOT Hips
{
	OFFSET 0.000000 0.000000 0.000000
	CHANNELS 6 Xposition Yposition Zposition Xrotation Yrotation Zrotation
	JOINT LeftUpLeg_virtual
	{
		OFFSET 0.000000 0.000000 0.000000
		CHANNELS 3 Xrotation Yrotation Zrotation
		JOINT LeftUpLeg
		{
			OFFSET 15.427100 -6.655098 0.678600
			CHANNELS 3 Xrotation Yrotation Zrotation
			JOINT LeftLeg
			{
				OFFSET 4.081073 -39.591068 13.024000
				CHANNELS 3 Xrotation Yrotation Zrotation
				JOINT LeftFoot
				{
					OFFSET -4.081074 -37.707932 -15.979700
					CHANNELS 3 Xrotation Yrotation Zrotation
					JOINT LeftToeBase
					{
						OFFSET 5.346399 -15.068900 20.645000
						CHANNELS 3 Xrotation Yrotation Zrotation
						JOINT LeftToe_End
						{
							OFFSET 2.754700 0.931300 11.300900
							CHANNELS 3 Xrotation Yrotation Zrotation
							End Site
							{
								OFFSET 0 0 0
							}
						}
					}
				}
			}
		}
	}
	JOINT RightUpLeg_virtual
	{
		OFFSET 0.000000 0.000000 0.000000
		CHANNELS 3 Xrotation Yrotation Zrotation
		JOINT RightUpLeg
		{
			OFFSET -15.569500 -6.655098 0.678600
			CHANNELS 3 Xrotation Yrotation Zrotation
			JOINT RightLeg
			{
				OFFSET -4.081825 -39.591045 13.023800
				CHANNELS 3 Xrotation Yrotation Zrotation
				JOINT RightFoot
				{
					OFFSET 4.081824 -37.707954 -15.979600
					CHANNELS 3 Xrotation Yrotation Zrotation
					JOINT RightToeBase
					{
						OFFSET -5.346400 -15.068900 20.645000
						CHANNELS 3 Xrotation Yrotation Zrotation
						JOINT RightToe_End
						{
							OFFSET -2.754700 0.931300 11.300900
							CHANNELS 3 Xrotation Yrotation Zrotation
							End Site
							{
								OFFSET 0 0 0
							}
						}
					}
				}
			}
		}
	}
	JOINT Spine_virtual
	{
		OFFSET 0.000000 0.000000 0.000000
		CHANNELS 3 Xrotation Yrotation Zrotation
		JOINT Spine
		{
			OFFSET -0.279200 12.230698 -2.892100
			CHANNELS 3 Xrotation Yrotation Zrotation
			JOINT Spine1
			{
				OFFSET -0.232667 10.192268 -1.242267
				CHANNELS 3 Xrotation Yrotation Zrotation
				JOINT Spine1_split
				{
					OFFSET -0.232667 10.192268 -1.242267
					CHANNELS 3 Xrotation Yrotation Zrotation
					JOINT Spine2
					{
						OFFSET -0.232667 10.192268 -1.242267
						CHANNELS 3 Xrotation Yrotation Zrotation
						JOINT Neck_virtual
						{
							OFFSET 0.000000 0.000000 0.000000
							CHANNELS 3 Xrotation Yrotation Zrotation
							JOINT Neck
							{
								OFFSET -0.418800 17.814194 8.416900
								CHANNELS 3 Xrotation Yrotation Zrotation
								JOINT Head
								{
									OFFSET 0.000000 7.031097 3.806800
									CHANNELS 3 Xrotation Yrotation Zrotation
									JOINT HeadTop_End
									{
										OFFSET 0.000000 24.646606 12.978600
										CHANNELS 3 Xrotation Yrotation Zrotation
										End Site
										{
											OFFSET 0 0 0
										}
									}
								}
							}
						}
						JOINT LeftShoulder_virtual
						{
							OFFSET 0.000000 0.000000 0.000000
							CHANNELS 3 Xrotation Yrotation Zrotation
							JOINT LeftShoulder
							{
								OFFSET 8.476499 7.247704 -3.868750
								CHANNELS 3 Xrotation Yrotation Zrotation
								JOINT LeftShoulder_split
								{
									OFFSET 8.476499 7.247704 -3.868750
									CHANNELS 3 Xrotation Yrotation Zrotation
									JOINT LeftArm
									{
										OFFSET 9.308998 -2.777710 0.208600
										CHANNELS 3 Xrotation Yrotation Zrotation
										JOINT LeftForeArm
										{
											OFFSET 29.972298 0.000000 0.000000
											CHANNELS 3 Xrotation Yrotation Zrotation
											JOINT LeftHand
											{
												OFFSET 26.026505 0.000000 0.000000
												CHANNELS 3 Xrotation Yrotation Zrotation
												End Site
												{
													OFFSET 0 0 0
												}
											}
										}
									}
								}
							}
						}
						JOINT RightShoulder_virtual
						{
							OFFSET 0.000000 0.000000 0.000000
							CHANNELS 3 Xrotation Yrotation Zrotation
							JOINT RightShoulder
							{
								OFFSET -7.570500 7.247704 -3.868750
								CHANNELS 3 Xrotation Yrotation Zrotation
								JOINT RightShoulder_split
								{
									OFFSET -7.570500 7.247704 -3.868750
									CHANNELS 3 Xrotation Yrotation Zrotation
									JOINT RightArm
									{
										OFFSET -9.308998 -2.777710 0.208500
										CHANNELS 3 Xrotation Yrotation Zrotation
										JOINT RightForeArm
										{
											OFFSET -29.972300 0.000000 0.000000
											CHANNELS 3 Xrotation Yrotation Zrotation
											JOINT RightHand
											{
												OFFSET -26.026505 0.000000 0.000000
												CHANNELS 3 Xrotation Yrotation Zrotation
												End Site
												{
													OFFSET 0 0 0
												}
											}
										}
									}
								}
							}
						}
					}
				}
			}
		}
	}
}
MOTION
Frames: 4
Frame Time: 0.03333333
4.457886 79.712029 0.387665 0.000000 0.000000 0.000000 7.862208 -12.084338 1.812904 -46.934109 5.510060 20.836879 36.942793 5.294061 6.721268 4.846607 0.091177 -19.137341 0.698010 0.709491 -0.568773 0.000000 0.000000 0.000000 7.285417 -12.084329 2.042534 -23.329186 -2.514361 -37.053493 30.719315 0.056037 -0.042562 -10.326658 -6.487505 30.656023 0.640806 1.004765 0.122569 0.000000 0.000000 0.000000 8.657590 -10.557427 1.486568 8.039996 3.151160 -2.123042 6.271998 1.634028 -1.222645 0.459530 1.974945 0.373719 0.000000 0.000000 0.000000 6.416740 1.263357 -0.526786 -1.850944 -0.049729 -3.300328 -10.812469 -3.521761 4.406939 0.000000 0.000000 0.000000 6.054824 1.688560 -1.028266 5.314676 -36.237152 3.773688 -2.325019 -3.544289 -1.387194 -77.520400 -33.759344 -28.147753 -0.131357 -23.941568 1.520201 0.000000 0.000000 0.000000 5.467792 1.493289 -0.678896 5.381049 28.398909 -19.651443 2.407538 -0.482322 1.556201 -38.249633 30.317010 12.479714 0.826059 39.671801 -0.518676 0.000000 0.000000 0.000000 
4.671860 79.470177 0.533108 0.000000 0.000000 0.000000 8.153411 -11.762447 1.597598 -47.917807 5.436234 20.980984 37.733971 5.166824 6.582348 4.365208 -0.230967 -18.888248 0.740906 0.694156 -0.558357 0.000000 0.000000 0.000000 7.513107 -11.830079 1.819081 -23.582765 -2.546383 -37.061559 31.062174 0.067622 -0.133906 -10.486479 -6.805365 30.654955 0.832602 1.034014 0.095106 0.000000 0.000000 0.000000 9.113895 -10.563086 1.296052 8.083676 2.924749 -2.172364 6.218894 1.362461 -1.254308 0.539578 2.203051 0.315826 0.000000 0.000000 0.000000 6.279103 1.017220 -0.571189 -2.591151 -0.324502 -2.623608 -11.115624 -3.700960 4.868080 0.000000 0.000000 0.000000 5.917397 1.505422 -1.125340 5.198628 -36.557751 3.987755 -0.890569 -3.798340 -0.835056 -76.763656 -33.847993 -26.848905 -0.191576 -23.654019 1.648006 0.000000 0.000000 0.000000 5.552026 1.386896 -0.766540 5.034453 28.746357 -19.534648 2.758647 -1.196008 1.532538 -40.748205 28.325674 13.858532 0.751852 41.135344 -0.338447 0.000000 0.000000 0.000000 
4.843132 79.195007 0.694401 0.000000 0.000000 0.000000 8.356424 -11.412347 1.334028 -48.738000 5.411335 21.159320 38.400239 5.064812 6.533572 3.787613 -0.427074 -18.585865 0.738668 0.682829 -0.567175 0.000000 0.000000 0.000000 7.700394 -11.458700 1.531017 -23.668434 -2.581888 -37.050911 31.295237 -0.005886 -0.255709 -10.748904 -7.164403 30.543585 1.070847 1.047226 0.117868 0.000000 0.000000 0.000000 9.485858 -10.569818 1.084888 8.147540 2.731241 -2.091198 6.235595 1.180757 -1.243558 0.737640 2.095479 0.265234 0.000000 0.000000 0.000000 6.145719 0.849045 -0.614688 -3.560633 -0.701769 -1.759868 -11.376758 -3.753326 5.252210 0.000000 0.000000 0.000000 5.956018 1.326199 -1.201049 4.959666 -36.535061 3.857909 0.090609 -3.768413 -0.400283 -76.160277 -34.106126 -26.456504 -0.500603 -22.760046 1.481642 0.000000 0.000000 0.000000 5.745166 1.382329 -0.802747 4.505553 28.628325 -18.805008 2.807345 -1.449714 1.259177 -42.782823 27.285581 15.525963 0.730863 41.243483 -0.268514 0.000000 0.000000 0.000000 
4.986287 78.916199 0.840954 0.000000 0.000000 0.000000 8.431316 -11.159388 1.048441 -49.312747 5.430087 21.384568 38.912554 5.008484 6.562419 3.219100 -0.502786 -18.269588 0.604401 0.680034 -0.570424 0.000000 0.000000 0.000000 7.838489 -11.103985 1.229043 -23.665306 -2.623630 -37.048613 31.399397 -0.118538 -0.389787 -10.998967 -7.461597 30.413890 1.296997 1.044101 0.182553 0.000000 0.000000 0.000000 9.689659 -10.599600 0.891938 8.216193 2.615349 -1.915968 6.308355 1.135028 -1.202893 0.932592 1.991784 0.166195 0.000000 0.000000 0.000000 6.043065 0.804947 -0.658206 -4.651011 -1.127098 -1.001850 -11.528698 -3.686630 5.522595 0.000000 0.000000 0.000000 6.139056 1.199775 -1.239613 4.690305 -36.241694 3.669607 0.497675 -3.375685 -0.297113 -76.001468 -34.896178 -26.774056 -0.914024 -21.667141 1.126693 0.000000 0.000000 0.000000 6.018147 1.462374 -0.793918 3.982433 28.212720 -17.904690 2.533524 -1.337846 0.767120 -43.654331 27.614369 16.845253 0.862391 39.857986 -0.403767 0.000000 0.000000 0.000000 
